<?xml version="1.0" encoding="utf-8"?>
<!-- Generator: Adobe Illustrator 25.0.1, SVG Export Plug-In . SVG Version: 6.00 Build 0)  -->
<svg version="1.1" id="Layer_1" xmlns="http://www.w3.org/2000/svg" xmlns:xlink="http://www.w3.org/1999/xlink" x="0px" y="0px"
	 viewBox="0 0 1653.6 883.8" style="enable-background:new 0 0 1653.6 883.8;" xml:space="preserve">
<style type="text/css">
	.st0{fill:#011633;}
	.st1{clip-path:url(#SVGID_2_);}
	.st2{fill:none;stroke:url(#SVGID_3_);stroke-miterlimit:10;}
	.st3{fill:none;stroke:url(#SVGID_4_);stroke-miterlimit:10;}
</style>
<g id="Layer_2_1_">
	<g id="Background">
		<rect class="st0" width="1653.6" height="883.8"/>
		<g>
			<g>
				<defs>
					<rect id="SVGID_1_" x="-143.5" y="-16" width="1653.6" height="883.8"/>
				</defs>
				<clipPath id="SVGID_2_">
					<use xlink:href="#SVGID_1_"  style="overflow:visible;"/>
				</clipPath>
				<g class="st1">
					
						<linearGradient id="SVGID_3_" gradientUnits="userSpaceOnUse" x1="-984.924" y1="-56.2239" x2="257.8173" y2="-56.2239" gradientTransform="matrix(1 0 0 1 368.1 306.87)">
						<stop  offset="0" style="stop-color:#00EFD1"/>
						<stop  offset="1" style="stop-color:#00ACEA"/>
					</linearGradient>
					<path class="st2" d="M-402.9,783.2L-610.3,22.9c-23.7-86.9,24.1-177.3,106.7-202l722.9-215.6c82.6-24.6,168.8,25.8,192.5,112.7
						l207.5,760.3c23.7,86.9-24.1,177.3-106.7,202l-723,215.7C-293,920.6-379.2,870.1-402.9,783.2z"/>
					
						<linearGradient id="SVGID_4_" gradientUnits="userSpaceOnUse" x1="-960.5239" y1="-101.4945" x2="282.1172" y2="-101.4945" gradientTransform="matrix(1 0 0 1 368.1 306.87)">
						<stop  offset="0" style="stop-color:#00EFD1"/>
						<stop  offset="1" style="stop-color:#00ACEA"/>
					</linearGradient>
					<path class="st3" d="M-378.5,738L-585.9-22.4c-23.7-86.9,24.1-177.3,106.7-202L243.7-440c82.6-24.5,168.8,26,192.5,112.9
						l207.4,760.3c23.7,86.9-24.1,177.3-106.7,202l-722.8,215.5C-268.6,875.3-354.8,824.9-378.5,738z"/>
				</g>
			</g>
		</g>
	</g>
</g>
</svg>
