<svg xmlns="http://www.w3.org/2000/svg" viewBox="0 0 622.51 346.68"><defs><style>.cls-1{fill:#00cfc1;}.cls-15,.cls-16,.cls-2,.cls-24,.cls-3{fill:none;stroke-miterlimit:10;}.cls-2,.cls-3{stroke:#001633;}.cls-3{stroke-width:2px;}.cls-4{fill:#001633;}.cls-5{fill:#c6e7ea;}.cls-26,.cls-6{fill:#fff;}.cls-7{fill:#9ec2c4;}.cls-8{fill:#9e6aad;}.cls-9{fill:#ffd4ea;}.cls-10{fill:#ffc962;}.cls-11{fill:#f8b5d7;}.cls-12{fill:#f9a5ca;}.cls-13{fill:#424242;}.cls-14{fill:#414141;}.cls-15,.cls-16,.cls-24{stroke:#424242;}.cls-15,.cls-16{stroke-width:0.75px;}.cls-16,.cls-24{stroke-linecap:round;}.cls-17{fill:#ffebbe;}.cls-18{fill:#fff2db;}.cls-19{fill:#ff9a4f;}.cls-20{fill:#3e7cf2;}.cls-21{fill:#ffaca4;}.cls-22{fill:#ffc6bb;}.cls-23{fill:#a85e59;}.cls-24{stroke-width:0.5px;}.cls-25{fill:#e58080;}.cls-26{opacity:0.86;}.cls-27{fill:#ccfff7;}.cls-28{fill:#a4eee5;}.cls-29{fill:#e96537;}.cls-30{fill:#ffd9ff;}.cls-31{fill:#f3c2f0;}.cls-32{fill:#32293b;}.cls-33{fill:#ff83c0;}.cls-34{fill:#ae6966;}.cls-35{fill:#ca7c74;}.cls-36{fill:#fc9393;}.cls-37{fill:#c9edb7;}.cls-38{fill:#e8fbd9;}.cls-39{fill:#875030;}.cls-40{fill:#e19189;}</style></defs><g id="Layer_2" data-name="Layer 2"><g id="Textos"><path class="cls-1" d="M536.09,145.67c17.67,22.06,74.79,37,82.35,63.86,21.74,77.26-50.6,124.18-50.6,124.18H36.34s-56-65.22-29-127.57c11.32-26.12,42.23-36.06,68-48.09,17.06-8,33.55-18.26,45.09-33.15,20.11-25.92,22.6-62,41.63-88.73,17-23.8,46.73-37.75,75.9-36,56.16,3.31,51.24,44.12,93.25,56.78,62.1,18.72,126.2-50.38,172.93,12.34C528.78,102.25,502.53,103.77,536.09,145.67Z"/><path class="cls-2" d="M166.8,72a3.61,3.61,0,1,1-3.61-3.6A3.61,3.61,0,0,1,166.8,72Z"/><circle class="cls-2" cx="279.32" cy="36" r="3.6"/><path class="cls-2" d="M29.25,256.84a3.6,3.6,0,1,1-3.6-3.6A3.6,3.6,0,0,1,29.25,256.84Z"/><path class="cls-2" d="M299.09,157.25a3.6,3.6,0,1,1-3.6-3.61A3.6,3.6,0,0,1,299.09,157.25Z"/><path class="cls-2" d="M514.51,164.4a3.6,3.6,0,1,1-3.6-3.6A3.6,3.6,0,0,1,514.51,164.4Z"/><circle class="cls-2" cx="590.39" cy="250.78" r="3.6"/><circle class="cls-2" cx="354.42" cy="61.11" r="3.6"/><path class="cls-2" d="M470.64,297.43a3.6,3.6,0,1,1-3.6-3.6A3.6,3.6,0,0,1,470.64,297.43Z"/><path class="cls-2" d="M257.34,308.51a3.6,3.6,0,1,1-3.6-3.6A3.6,3.6,0,0,1,257.34,308.51Z"/><circle class="cls-2" cx="414.6" cy="234.91" r="3.6"/><line class="cls-2" x1="462.76" y1="169.63" x2="455.96" y2="169.63"/><line class="cls-2" x1="459.36" y1="166.23" x2="459.36" y2="173.03"/><line class="cls-2" x1="365.92" y1="190.95" x2="359.12" y2="190.95"/><line class="cls-2" x1="362.52" y1="187.55" x2="362.52" y2="194.35"/><line class="cls-2" x1="440.24" y1="75.64" x2="433.44" y2="75.64"/><line class="cls-2" x1="436.84" y1="72.24" x2="436.84" y2="79.04"/><line class="cls-2" x1="559.3" y1="300.83" x2="552.5" y2="300.83"/><line class="cls-2" x1="555.9" y1="297.43" x2="555.9" y2="304.23"/><line class="cls-2" x1="374.41" y1="304.91" x2="367.61" y2="304.91"/><line class="cls-2" x1="371.01" y1="301.51" x2="371.01" y2="308.31"/><line class="cls-2" x1="90.17" y1="312.11" x2="83.37" y2="312.11"/><line class="cls-2" x1="86.77" y1="308.71" x2="86.77" y2="315.51"/><line class="cls-2" x1="190.56" y1="142.73" x2="183.77" y2="142.73"/><line class="cls-2" x1="187.17" y1="139.33" x2="187.17" y2="146.13"/><path class="cls-3" d="M227.12,168.9h46.16a18.51,18.51,0,0,1,18.52,18.51v36.78a18.51,18.51,0,0,0,18.51,18.51h68.38a18.51,18.51,0,0,1,18.51,18.51v41.92a18.51,18.51,0,0,0,18.51,18.51h46a18.51,18.51,0,0,0,18.51-18.51V258.77a18.51,18.51,0,0,1,18.51-18.51h38a18.51,18.51,0,0,0,18.51-18.51V114.81A18.51,18.51,0,0,0,536.77,96.3H506a18.51,18.51,0,0,0-18.51,18.51V173A18.51,18.51,0,0,1,469,191.52H423.35A18.51,18.51,0,0,1,404.84,173V140.7a18.51,18.51,0,0,0-18.51-18.51H357.45a18.51,18.51,0,0,1-18.51-18.51V42.23a18.51,18.51,0,0,0-18.51-18.51H272.25a18.51,18.51,0,0,0-18.51,18.51V69.51A18.51,18.51,0,0,1,235.23,88H188.32a18.51,18.51,0,0,0-18.51,18.51v65.14"/><polygon class="cls-4" points="174.77 329.44 106.68 329.44 116.91 255.68 164.55 255.68 174.77 329.44"/><path class="cls-5" d="M106.21,325.8h69a3,3,0,0,1,3,3v.64a0,0,0,0,1,0,0h-75a0,0,0,0,1,0,0v-.64A3,3,0,0,1,106.21,325.8Z"/><rect class="cls-4" x="41.78" y="153.97" width="197.91" height="139.33" rx="11.48"/><rect class="cls-6" x="51.36" y="163.55" width="178.74" height="102.44"/><path class="cls-5" d="M41.78,275.58v6.24A11.48,11.48,0,0,0,53.26,293.3H228.2a11.48,11.48,0,0,0,11.48-11.48v-6.24Z"/><path class="cls-7" d="M145.76,284.44a5,5,0,1,1-5-5A5,5,0,0,1,145.76,284.44Z"/><path class="cls-8" d="M109.36,187.9c-5.53,4.68-13.94,4.47-20.51,1.42-3.4-1.58-6.66-4.06-7.85-7.62s.56-8.2,4.2-9.07a35.08,35.08,0,0,1,4.36-.25c1.44-.16,3-.93,3.34-2.36a5.56,5.56,0,0,0-.56-2.91c-1.31-3.72-.54-8.85,3.13-10.27,8.65-3.34,11.81,6.14,18,5.39s4.94-6.94.68-11.21-7.63-18.76,2.88-27.33c11.94-9.74,26.2-3.91,31.1,1.66,5.14,5.84,4,15,0,20.77,0,0-13.73,11.23-11.93,20.67S109.36,187.9,109.36,187.9Z"/><path class="cls-9" d="M234,168.9s-28.23,29.79-30.48,29.58S177,178.93,171.64,175.9c-7.25-4.11-16.74-5.74-38.52-5.2-11.66.28-23.53.4-30.26,5.36C98.3,179.63,80.61,213,74.51,214.84c-5.91,1.45-32.41-18.51-32.41-18.51L38,202.07s27.16,34.23,39.17,33c6.93-.69,23.69-19.2,26.15-24.08,0,0-1.26,19.54-4.1,55h77c-1.21-9.87-4.05-35.23-4.87-62.9,0,0,23.44,16.89,33.83,14.19,14.31-4.28,33.35-42,33.35-42Z"/><path class="cls-9" d="M36.49,190.73a35.75,35.75,0,0,1-7.77-6.88c-1-.64-5.91,5.82-5.18,9.64.64,1.93,4.89,5,6.35,5.73,2.14,1,8.08,2.85,8.08,2.85s4.58-1.35,4.13-5.74c0,0-1.48-8-3.17-9-1.91-1.11-3.66-3.92-4.32-3.38C33.54,184.89,34,188.36,36.49,190.73Z"/><path class="cls-9" d="M246,166.69a24.05,24.05,0,0,0,10-.82c1.16,0,2,7.56-.75,10.32-1.6,1.25-6.88,1.47-8.47,1.22-2.33-.37-8.29-2.13-8.29-2.13s-7.32-3-4.51-6.38c0,0,9-6.31,11-6.18,2.2.15,5.06-1.43,5.65-.82C251.69,163,249.44,166.11,246,166.69Z"/><path class="cls-10" d="M209.8,193.39c-3.25,3.07-5.7,5.15-6.3,5.09-2.12-.19-26.54-19.55-31.86-22.58-7.25-4.11-16.74-5.74-38.52-5.2-11.66.28-23.53.4-30.26,5.36C98.3,179.63,80.61,213,74.51,214.84c-1.52.37-4.39-.67-7.82-2.42l-7.57,12.43c6.64,6,13.43,10.68,18,10.21,6.93-.69,23.69-19.2,26.15-24.08,0,0-1.26,19.54-4.1,55h77c-1.21-9.87-4.05-35.23-4.87-62.9,0,0,23.44,16.89,33.83,14.19,4.33-1.3,9.09-5.66,13.63-11.11Z"/><path class="cls-11" d="M130,171.23l.64-17.26H144l-.27,16.63-3.87,16.92a2.38,2.38,0,0,1-4.59.19Z"/><path class="cls-9" d="M150.4,139c-5.09-.8-10.58-6.25-10.58-6.25-3.81,8.45-16.52,13.43-16.52,13.43-4-4.49-6.63-1.09-5,2.7a7.77,7.77,0,0,0,4.91,4.51s8,12.58,17,10.91C152.24,162,150.4,139,150.4,139Z"/><path class="cls-12" d="M140.55,150.65A3.4,3.4,0,0,0,142,150a2.28,2.28,0,0,0,.4-.37,1.67,1.67,0,0,0,.17-.26,1.12,1.12,0,0,0,.09-.22c0-.08.09-.17,0-.24l-.34-.58-.3-.49a15.27,15.27,0,0,0-2.22-2.93,15.59,15.59,0,0,0,1.64,3.31l.31.48.15.24.08.11s0,0,0,0,0,0,0,0a.76.76,0,0,1-.09.18,1.77,1.77,0,0,1-.26.35A12.26,12.26,0,0,1,140.55,150.65Z"/><path class="cls-6" d="M135,146.78a1.94,1.94,0,1,1-2.26-1.56A1.94,1.94,0,0,1,135,146.78Z"/><path class="cls-13" d="M133.35,148.27a1.09,1.09,0,1,1,.87-1.27A1.09,1.09,0,0,1,133.35,148.27Z"/><path class="cls-6" d="M148.08,144.35a1.94,1.94,0,1,1-2.27-1.55A2,2,0,0,1,148.08,144.35Z"/><path class="cls-13" d="M146.42,145.85a1.09,1.09,0,1,1,.87-1.27A1.09,1.09,0,0,1,146.42,145.85Z"/><path class="cls-14" d="M134.1,144.21a2.36,2.36,0,0,0-2-.34,2.29,2.29,0,0,0-1.63,1.21c.42-.11,1-.36,1.79-.53S133.67,144.33,134.1,144.21Z"/><path class="cls-14" d="M144.26,142.33c.45-.05,1.1-.25,1.85-.35s1.43-.09,1.86-.14a2.26,2.26,0,0,0-2-.55A2.4,2.4,0,0,0,144.26,142.33Z"/><path class="cls-6" d="M139.35,153l4.54-.85a2.37,2.37,0,0,1-4.54.85Z"/><path class="cls-15" d="M137.17,146.12a4.14,4.14,0,1,1-4.83-3.32A4.15,4.15,0,0,1,137.17,146.12Z"/><path class="cls-15" d="M150.2,143.71a4.14,4.14,0,1,1-4.83-3.32A4.15,4.15,0,0,1,150.2,143.71Z"/><line class="cls-15" x1="137.17" y1="146.12" x2="142.05" y2="145.22"/><line class="cls-16" x1="129.02" y1="147.63" x2="123.3" y2="146.13"/><path class="cls-17" d="M218.93,92.18c12.94-2.59,26.29-2.43,39.35-4.34a93.22,93.22,0,0,0,28.05-8.37c7.91-3.94,15.43-9.79,19.42-17.5V56.4a3.93,3.93,0,0,0-3.93-3.93H204.39a3.94,3.94,0,0,0-3.94,3.93V99.67a28.81,28.81,0,0,1,2.61-1.8A48.57,48.57,0,0,1,218.93,92.18Z"/><path class="cls-18" d="M286.33,79.47a93.22,93.22,0,0,1-28.05,8.37c-13.06,1.91-26.41,1.75-39.35,4.34a48.57,48.57,0,0,0-15.87,5.69,28.81,28.81,0,0,0-2.61,1.8V124.5a4,4,0,0,0,3.94,3.94h60.48A47.3,47.3,0,0,1,287.6,106a54.45,54.45,0,0,1,18.15-4.75V62C301.76,69.68,294.24,75.53,286.33,79.47Z"/><path class="cls-17" d="M264.87,128.44h36.95a3.94,3.94,0,0,0,3.93-3.94V101.24A54.45,54.45,0,0,0,287.6,106,47.3,47.3,0,0,0,264.87,128.44Z"/><path class="cls-19" d="M295.41,119.73c-7.73-4.74-24.91-4.87-37.52-6.06-12.43-1.17-32.08,1.38-38,4-2.81,1.27-7.7,7-13,14.1h96.33C301.58,126.54,299.22,122.06,295.41,119.73Z"/><path class="cls-20" d="M236.31,79.46s-11.48-8.58-8.78-19.19c2.19-8.59,14.51.93,14.51.93s-1.42-6.06,4.27-6.1c3.1,0,9.49,5.53,9.49,5.53s16.34,3,17.47,11.12S270,93.15,263.9,94.43,236.31,79.46,236.31,79.46Z"/><path class="cls-21" d="M261.29,114l-.7-19H245.91l-.15,18.67,4.35,12a2.57,2.57,0,0,0,4.69.34Z"/><path class="cls-22" d="M234.89,81.56s2.11,25,14.92,25c13.18,0,14.92-15.87,14.92-15.87s2.58-.59,3.88-5c1-3.45-1.3-5.78-3.14-2.43a2.09,2.09,0,0,1-1.75-.61s.66-4.88-.19-7.86-21.39,9.07-27.86-.63C235.67,74.17,234.45,76.66,234.89,81.56Z"/><path class="cls-23" d="M248.78,90.91a7.64,7.64,0,0,1-1.9.13,1.87,1.87,0,0,1-.53-.13.8.8,0,0,1-.22-.13s0,0,0,0,0-.16,0-.24.05-.22.08-.33.13-.46.21-.69c.63-1.88,1.24-3.54,1.43-4.48a16.47,16.47,0,0,0-2.1,4.26c-.07.25-.15.49-.2.74a2.33,2.33,0,0,0-.08.38,3.37,3.37,0,0,0,0,.46V91a1.31,1.31,0,0,0,.12.11l.23.19a2,2,0,0,0,.37.16,2.27,2.27,0,0,0,.71.09A4,4,0,0,0,248.78,90.91Z"/><path class="cls-6" d="M253.27,86a2.14,2.14,0,1,0,2.14-2.14A2.14,2.14,0,0,0,253.27,86Z"/><circle class="cls-13" cx="254.86" cy="86.82" r="1.2"/><path class="cls-6" d="M238.63,86a2.14,2.14,0,1,0,2.14-2.14A2.14,2.14,0,0,0,238.63,86Z"/><path class="cls-13" d="M240.22,88.15A1.2,1.2,0,1,0,239,87,1.2,1.2,0,0,0,240.22,88.15Z"/><path class="cls-24" d="M257.85,83.27a4.42,4.42,0,0,0-4.11-.22"/><path class="cls-24" d="M238.43,83.27a4.42,4.42,0,0,1,4.11-.22"/><path class="cls-20" d="M237.06,92.54s15.7.43,24.23-.54c.65-.76,1.62-4.77,2-5.32s1.67-.28,1.94,0,.35,8.41-1.17,14.41-18.27,6.07-22.19,4.82C239.49,105.15,237.06,92.54,237.06,92.54Z"/><path class="cls-25" d="M244,94.43a4.56,4.56,0,0,0,3.23,1.42,4,4,0,0,0,3.23-1.42,7.93,7.93,0,0,1-3.21.72A11.45,11.45,0,0,1,244,94.43Z"/><path class="cls-4" d="M301.82,133.5H204.39a9,9,0,0,1-9-9V56.4a9,9,0,0,1,9-9h97.43a9,9,0,0,1,9,9v68.1A9,9,0,0,1,301.82,133.5Zm-97.43-81a3.94,3.94,0,0,0-3.94,3.93v68.1a4,4,0,0,0,3.94,3.94h97.43a3.94,3.94,0,0,0,3.93-3.94V56.4a3.93,3.93,0,0,0-3.93-3.93Z"/><circle class="cls-4" cx="298.95" cy="58.52" r="3.07"/><rect class="cls-4" x="277.94" y="57.18" width="16.21" height="2.68" rx="1.34"/><rect class="cls-4" x="205.47" y="56.5" width="5.96" height="0.84"/><rect class="cls-4" x="205.47" y="58.38" width="5.96" height="0.84"/><rect class="cls-4" x="205.47" y="60.27" width="5.96" height="0.84"/><rect class="cls-26" x="208.13" y="116.88" width="37.98" height="5.72" rx="2.85"/><path class="cls-27" d="M501.3,273.55c-13.47-3.17-26.08-9.37-39.51-12.7a96.61,96.61,0,0,0-40.41-1.29v25.27a4,4,0,0,0,3.94,3.94h97.43a3.94,3.94,0,0,0,3.93-3.94v-10.5C518.49,276.1,509.54,275.48,501.3,273.55Z"/><path class="cls-27" d="M467.76,247.35c6.84,4.44,15.2,6.16,23.35,6a55.82,55.82,0,0,0,35.57-14.07V216.73a3.93,3.93,0,0,0-3.93-3.93H430.64a85.8,85.8,0,0,1,15.23,11.6C453.38,231.89,458.87,241.57,467.76,247.35Z"/><path class="cls-28" d="M491.11,253.33c-8.15.18-16.51-1.54-23.35-6-8.89-5.78-14.38-15.46-21.89-22.95a85.8,85.8,0,0,0-15.23-11.6h-5.32a3.94,3.94,0,0,0-3.94,3.93v42.83a96.61,96.61,0,0,1,40.41,1.29c13.43,3.33,26,9.53,39.51,12.7,8.24,1.93,17.19,2.55,25.38.78V239.26A55.82,55.82,0,0,1,491.11,253.33Z"/><path class="cls-29" d="M458,240.57s-9-6.94-4.61-17.3c3.72-8.76,25.38-5.09,30.49.11,2.95,3-.63,6.34,4.74,8,9.15,2.85,2.27,23.17-5,23.64Z"/><path class="cls-20" d="M510,279.45c-7.73-4.74-18.52-4.26-31.13-5.45-12.43-1.17-32.08,1.38-38,4-2.81,1.27-8.46,7.31-10.4,14.59H517.9C516.27,287.36,513.76,281.78,510,279.45Z"/><path class="cls-21" d="M482.22,274.3l-.7-19H466.84L466.69,274h0a8.3,8.3,0,0,0,15.11,1.12Z"/><path class="cls-22" d="M456.12,242.12s1.39,22.75,14.21,22.75c13.18,0,15.33-13.88,15.33-13.88s2.58-.59,3.88-5c1-3.45-1.3-5.78-3.14-2.43a2.08,2.08,0,0,1-1.75-.62,48.92,48.92,0,0,0-1.27-6.58c-.86-3-25.5,7.2-26.78-1.9A20.3,20.3,0,0,0,456.12,242.12Z"/><path class="cls-23" d="M469.71,251.24c-.42-.17-1-.36-1.75-.57l-.56-.17-.29-.09c-.11,0-.05,0-.07,0v0l.06-.28c.06-.2.12-.41.2-.63.62-1.73,1.27-3.24,1.48-4.12a13.23,13.23,0,0,0-2.14,3.9,5.45,5.45,0,0,0-.2.69l-.07.39,0,.31v.24s.05,0,.07,0l.55.13.31.06.59.09A8.87,8.87,0,0,0,469.71,251.24Z"/><path class="cls-6" d="M474.2,246.34a2.14,2.14,0,1,0,2.14-2.14A2.14,2.14,0,0,0,474.2,246.34Z"/><path class="cls-13" d="M476.52,247.47a1.2,1.2,0,1,0-1.2-1.19A1.19,1.19,0,0,0,476.52,247.47Z"/><path class="cls-6" d="M459.56,246.34a2.14,2.14,0,1,0,2.14-2.14A2.14,2.14,0,0,0,459.56,246.34Z"/><circle class="cls-13" cx="461.88" cy="246.41" r="1.2"/><path class="cls-16" d="M478.78,243.6a4.42,4.42,0,0,0-4.11-.22"/><path class="cls-16" d="M459.36,243.6a4.42,4.42,0,0,1,4.11-.22"/><path class="cls-6" d="M471.18,253.09h-4.91a2.52,2.52,0,0,0,4.91,0Z"/><path class="cls-4" d="M522.75,293.83H425.32a9,9,0,0,1-9-9v-68.1a9,9,0,0,1,9-9h97.43a9,9,0,0,1,9,9v68.1A9,9,0,0,1,522.75,293.83Zm-97.43-81a3.94,3.94,0,0,0-3.94,3.93v68.1a4,4,0,0,0,3.94,3.94h97.43a3.94,3.94,0,0,0,3.93-3.94v-68.1a3.93,3.93,0,0,0-3.93-3.93Z"/><path class="cls-4" d="M523,218.85a3.07,3.07,0,1,1-3.07-3.07A3.07,3.07,0,0,1,523,218.85Z"/><rect class="cls-4" x="498.87" y="217.51" width="16.21" height="2.68" rx="1.34"/><rect class="cls-4" x="426.4" y="216.83" width="5.96" height="0.84"/><rect class="cls-4" x="426.4" y="218.71" width="5.96" height="0.84"/><rect class="cls-4" x="426.4" y="220.6" width="5.96" height="0.84"/><rect class="cls-26" x="429.06" y="277.21" width="37.98" height="5.72" rx="2.85"/><path class="cls-30" d="M384,160.47c-3.85-3-9.19-2.8-14.07-2.72s-10.37-.35-13.53-4.06c-1.74-2.05-2.45-4.76-3.18-7.34-1-3.52-2.2-7.08-4.43-10-3.69-4.79-9.82-7.2-15.84-7.71-.58,0-1.15-.07-1.73-.09v39.8a3.94,3.94,0,0,0,3.93,3.94h55.32c-.52-1.53-1.05-3.05-1.65-4.55C387.76,165,386.36,162.29,384,160.47Z"/><path class="cls-31" d="M412.14,130.1c-10.67-3.26-18.32-12.79-23.06-22.89a43.91,43.91,0,0,1-3.65-10.87H335.19a3.94,3.94,0,0,0-3.93,3.93v28.3c.58,0,1.15,0,1.73.09,6,.51,12.15,2.92,15.84,7.71,2.23,2.9,3.42,6.46,4.43,10,.73,2.58,1.44,5.29,3.18,7.34,3.16,3.71,8.66,4.15,13.53,4.06s10.22-.28,14.07,2.72c2.32,1.82,3.72,4.55,4.82,7.29.6,1.5,1.13,3,1.65,4.55h42.11a3.93,3.93,0,0,0,3.94-3.94V135.14c-.23-.12-.44-.25-.67-.36C428.56,131.32,419.89,132.46,412.14,130.1Z"/><path class="cls-30" d="M432.62,96.34H385.43a43.91,43.91,0,0,0,3.65,10.87c4.74,10.1,12.39,19.63,23.06,22.89,7.75,2.36,16.42,1.22,23.75,4.68.23.11.44.24.67.36V100.27A3.94,3.94,0,0,0,432.62,96.34Z"/><path class="cls-32" d="M399.12,164a28.48,28.48,0,0,0,8.92-.79,6.31,6.31,0,0,0,2.42-1,5.7,5.7,0,0,0,1.63-2.73,15,15,0,0,0,.38-7.77,13.57,13.57,0,0,1-.59-3.49c.16-3.4,3.79-5.6,4.81-8.84a6.18,6.18,0,0,0,0-3.71c-.62-1.88-2.15-3.47-2.29-5.45-.22-3.17,3.24-5.83,2.72-9-.69-4.23-7.72-5.13-8.11-9.39-.12-1.37.54-2.71.52-4.08-.05-2.76-2.83-4.74-5.53-5.3-1.74-.36-3.66-.37-5.08-1.45-1.15-.87-1.74-2.28-2.65-3.4a7.36,7.36,0,0,0-6-2.67c-3.1.16-5.79,2.26-8.85,2.77-2.65.44-5.53-.31-7.93.89-3.38,1.69-4.1,6.36-7.09,8.68-1.09.84-2.43,1.32-3.49,2.2a6,6,0,0,0-2.12,5.29c.19,1.59,1,3.07,1,4.67a19.59,19.59,0,0,1-.9,4,9.18,9.18,0,0,0,3.49,9.22,6,6,0,0,0,4.13,1.26l14.94,9.88.45,10.65Z"/><path class="cls-33" d="M423.13,163c-8.45-4.73-20.23-4.26-34-5.45-13.56-1.17-35,1.38-41.5,4-3.06,1.27-9.23,7.31-11.35,14.59h95.54C430,170.9,427.28,165.33,423.13,163Z"/><polygon class="cls-34" points="382.65 175.08 391.52 158.1 390.77 139.86 376.68 139.86 376.53 157.7 382.65 175.08"/><path class="cls-35" d="M376.24,118.48s7.67,9.47,19.27,9.38c3.29-5.43,6.67-2.41,5.67,1.85a8.22,8.22,0,0,1-4.23,5.64S391.07,150,381.35,150c-12.86,0-16-24.09-16-24.09C370.46,124.06,376.24,118.48,376.24,118.48Z"/><path class="cls-23" d="M378.44,136.19a13.2,13.2,0,0,1-1.37-.82c-.25-.18-.51-.51-.41-.45a1.9,1.9,0,0,0,.31-.34,3.53,3.53,0,0,0,.37-.55,6.52,6.52,0,0,0,.76-3.93,23.65,23.65,0,0,1-1.36,3.59c-.11.16-.2.34-.31.48a5,5,0,0,1-.47.55l-.09.1s0,.07,0,.11l.14.23a1.11,1.11,0,0,0,.27.31,2.42,2.42,0,0,0,.48.33A3.89,3.89,0,0,0,378.44,136.19Z"/><circle class="cls-6" cx="385.52" cy="130.79" r="2.05"/><path class="cls-13" d="M385.06,132a1.15,1.15,0,0,0,0-2.3,1.15,1.15,0,1,0,0,2.3Z"/><circle class="cls-6" cx="371.46" cy="130.79" r="2.05"/><path class="cls-13" d="M371,132a1.15,1.15,0,1,0-1.15-1.15A1.15,1.15,0,0,0,371,132Z"/><path class="cls-14" d="M383.91,128c.47,0,1.18-.07,2,0s1.51.19,2,.24a2.44,2.44,0,0,0-1.93-.93A2.56,2.56,0,0,0,383.91,128Z"/><path class="cls-14" d="M373,128a2.56,2.56,0,0,0-2-.72,2.44,2.44,0,0,0-1.93.93c.46,0,1.16-.2,2-.24S372.52,128,373,128Z"/><path class="cls-36" d="M375.69,138a2.62,2.62,0,0,0,2.08,1,2.29,2.29,0,0,0,2.07-1,7.19,7.19,0,0,1-2.06.34A13.76,13.76,0,0,1,375.69,138Z"/><path class="cls-4" d="M432.62,177.37H335.19a9,9,0,0,1-9-9v-68.1a9,9,0,0,1,9-9h97.43a9,9,0,0,1,9,9v68.1A9,9,0,0,1,432.62,177.37Zm-97.43-81a3.94,3.94,0,0,0-3.93,3.93v68.1a3.94,3.94,0,0,0,3.93,3.94h97.43a3.93,3.93,0,0,0,3.94-3.94v-68.1a3.94,3.94,0,0,0-3.94-3.93Z"/><path class="cls-4" d="M432.83,102.39a3.07,3.07,0,1,1-3.07-3.07A3.07,3.07,0,0,1,432.83,102.39Z"/><rect class="cls-4" x="408.75" y="101.05" width="16.21" height="2.68" rx="1.34"/><rect class="cls-4" x="336.28" y="100.37" width="5.96" height="0.84"/><rect class="cls-4" x="336.28" y="102.25" width="5.96" height="0.84"/><rect class="cls-4" x="336.28" y="104.14" width="5.96" height="0.84"/><rect class="cls-26" x="338.94" y="160.75" width="37.98" height="5.72" rx="2.85"/><path class="cls-37" d="M333.86,218.84c6.83-5.43,11.21-13.22,16-20.56H272.76a3.94,3.94,0,0,0-3.94,3.93v38.1c14.16-6.15,30-8.22,45-12.37C321,226,328.08,223.43,333.86,218.84Z"/><path class="cls-38" d="M327.22,261.53c6.74-3.84,14.78-4.43,22.5-5.27s15.82-2.17,21.81-7.1a24.7,24.7,0,0,0,2.59-2.52V202.21a3.93,3.93,0,0,0-3.93-3.93H349.82c-4.75,7.34-9.13,15.13-16,20.56-5.78,4.59-12.91,7.13-20,9.1-15,4.15-30.86,6.22-45,12.37v30a4,4,0,0,0,3.94,3.94h40.4C317.59,269.7,321.71,264.67,327.22,261.53Z"/><path class="cls-37" d="M371.53,249.16c-6,4.93-14.1,6.27-21.81,7.1s-15.76,1.43-22.5,5.27c-5.51,3.14-9.63,8.17-14.06,12.72h57a3.94,3.94,0,0,0,3.93-3.94V246.64A24.7,24.7,0,0,1,371.53,249.16Z"/><path class="cls-39" d="M336.17,213a17.35,17.35,0,0,1,19.28,5.42c2.23,2.86,3.48,6.84,2,10.15-1.29,2.93-4.32,4.62-6.65,6.83-1.34,1.26-2.56,3-2.27,4.8a6,6,0,0,0,2.26,3.36,37,37,0,0,1,3.58,3.15,5.88,5.88,0,0,1,1.7,4.32c-.42,4.31-7,5.78-7.64,10.06a14.81,14.81,0,0,0,.44,4.17A7.77,7.77,0,0,1,347,271.6c-1.61,1.64-4.62,2.66-6.31,1.1-5.27-4.87-10-12.69-3.72-20.27,4.94-6,7.56-7.06,4.08-11.2s-1.25-8.95,2.81-12.19c3.09-2.45-.09-6.61-2.35-6.34Z"/><path class="cls-39" d="M306.17,233.33s-9.49-14.94,3.8-26,32.08,2,33.91,14.17c1.25,8.38-3.42,22.69-16.89,24.45Z"/><path class="cls-8" d="M358.22,264.93c-7.91-4.74-19-4.27-31.85-5.46-12.72-1.17-32.83,1.39-38.89,4-2.87,1.26-8.65,7.31-10.63,14.59h89.51C364.69,272.84,362.12,267.26,358.22,264.93Z"/><polygon class="cls-21" points="320.22 277.01 329.08 260.03 328.33 241.8 314.24 241.8 314.09 259.64 320.22 277.01"/><path class="cls-22" d="M316.69,218.91s6.15,10.52,17.62,12.18c4.07-4.87,7-1.37,5.33,2.69a8.22,8.22,0,0,1-5,4.93s-8,13.56-17.63,12.09c-12.72-1.94-12.21-26.24-12.21-26.24C310.13,223.55,316.69,218.91,316.69,218.91Z"/><path class="cls-40" d="M316.38,235.5c-.42-.08-1-.13-1.68-.23a3.88,3.88,0,0,1-.49-.11c-.09,0-.06,0-.06-.06s.13-.22.22-.36l.34-.54a26.8,26.8,0,0,0,2.06-3.52,15,15,0,0,0-2.65,3.15c-.12.18-.23.37-.34.56a2.74,2.74,0,0,0-.32.73.7.7,0,0,0,0,.25.73.73,0,0,0,.18.17,1,1,0,0,0,.43.19,3.18,3.18,0,0,0,.6,0A6.29,6.29,0,0,0,316.38,235.5Z"/><path class="cls-6" d="M322,232.16a2,2,0,1,0,2.33-1.71A2,2,0,0,0,322,232.16Z"/><path class="cls-13" d="M323.11,233.5a1.15,1.15,0,1,0-1-1.31A1.14,1.14,0,0,0,323.11,233.5Z"/><path class="cls-6" d="M308.07,230a2.05,2.05,0,1,0,2.34-1.72A2.06,2.06,0,0,0,308.07,230Z"/><path class="cls-13" d="M309.21,231.38a1.15,1.15,0,0,0,1.31-1,1.15,1.15,0,1,0-1.31,1Z"/><path class="cls-14" d="M322.84,229.43c.45.09,1.18.1,2,.27s1.47.41,1.91.53a2.44,2.44,0,0,0-1.77-1.22A2.54,2.54,0,0,0,322.84,229.43Z"/><path class="cls-14" d="M312,227.77a2.58,2.58,0,0,0-1.88-1,2.45,2.45,0,0,0-2,.63c.45,0,1.17,0,2,.07S311.57,227.73,312,227.77Z"/><path class="cls-36" d="M313.2,238.07a2.61,2.61,0,0,0,1.9,1.34,2.31,2.31,0,0,0,2.2-.71,7.44,7.44,0,0,1-2.09,0A15,15,0,0,1,313.2,238.07Z"/><path class="cls-4" d="M370.19,279.3H272.76a9,9,0,0,1-9-9v-68.1a9,9,0,0,1,9-9h97.43a9,9,0,0,1,9,9v68.1A9,9,0,0,1,370.19,279.3Zm-97.43-81a3.94,3.94,0,0,0-3.94,3.93v68.1a4,4,0,0,0,3.94,3.94h97.43a3.94,3.94,0,0,0,3.93-3.94v-68.1a3.93,3.93,0,0,0-3.93-3.93Z"/><path class="cls-4" d="M370.39,204.33a3.07,3.07,0,1,1-3.07-3.07A3.08,3.08,0,0,1,370.39,204.33Z"/><rect class="cls-4" x="346.31" y="202.99" width="16.21" height="2.68" rx="1.34"/><rect class="cls-4" x="273.84" y="202.31" width="5.96" height="0.84"/><rect class="cls-4" x="273.84" y="204.19" width="5.96" height="0.84"/><rect class="cls-4" x="273.84" y="206.07" width="5.96" height="0.84"/><rect class="cls-26" x="276.5" y="262.68" width="37.97" height="5.72" rx="2.85"/><path class="cls-37" d="M474.71,131.75a21.88,21.88,0,0,1,4.59-8.1c6.95-8.4,16.71-14.14,23.53-22.65a50.23,50.23,0,0,0,10.06-23.46,26.27,26.27,0,0,0,.18-8.93A20,20,0,0,0,511,62.92h-45.5a4,4,0,0,0-3.94,3.94V135a3.94,3.94,0,0,0,3.94,3.93h8.72A20.63,20.63,0,0,1,474.71,131.75Z"/><path class="cls-38" d="M546.86,117.56c-1.69-3.9-2.64-8.35-1.35-12.4a15.06,15.06,0,0,1,5.84-7.52,29.45,29.45,0,0,1,8.8-4,57.5,57.5,0,0,1,6.73-1.54V66.86A3.94,3.94,0,0,0,563,62.92H511a20,20,0,0,1,2.05,5.69,26.27,26.27,0,0,1-.18,8.93A50.23,50.23,0,0,1,502.83,101c-6.82,8.51-16.58,14.25-23.53,22.65a21.88,21.88,0,0,0-4.59,8.1,20.63,20.63,0,0,0-.47,7.14h81.38a36.19,36.19,0,0,0-2.9-10C550.94,125,548.55,121.46,546.86,117.56Z"/><path class="cls-37" d="M560.15,93.69a29.45,29.45,0,0,0-8.8,4,15.06,15.06,0,0,0-5.84,7.52c-1.29,4-.34,8.5,1.35,12.4s4.08,7.46,5.86,11.32a36.19,36.19,0,0,1,2.9,10H563a3.93,3.93,0,0,0,3.93-3.93V92.15A57.5,57.5,0,0,0,560.15,93.69Z"/><path class="cls-32" d="M498.22,94.12c-7.13-3.08-8.45-9.44-8.2-11.78a7.36,7.36,0,0,1,3.54-5.77c2.21-1.14,5.23-.84,6.83-2.74.95-1.13,1.09-2.72,1.71-4a7,7,0,0,1,4.7-3.64,10.31,10.31,0,0,1,6,.54c3.57,1.38,6.75,4.31,10.57,4.11,1.87-.11,3.64-1,5.51-1.1A6.94,6.94,0,0,1,536.27,77c-.11,2-1.11,4-1,6,.15,1.85,1.23,3.48,2.13,5.11s1.66,3.53,1.11,5.31c-.66,2.14-3,3.38-3.83,5.46-.53,1.35-.36,2.86-.53,4.3a7.43,7.43,0,0,1-4.31,6c-2.75,1.1-5.85.1-8.64-.89Z"/><path class="cls-10" d="M556.05,129.57c-9-4.73-21.57-4.26-36.26-5.45-14.48-1.17-37.37,1.38-44.27,4-3.27,1.27-9.84,7.31-12.1,14.59H565.31C563.41,137.48,560.48,131.91,556.05,129.57Z"/><path class="cls-34" d="M522.42,124.42l-.7-19H507l-.15,18.67h0A8.3,8.3,0,0,0,522,125.21Z"/><path class="cls-35" d="M496.77,94.58s1.26,21.83,15.62,21.8c13.18,0,14.43-14.81,14.43-14.81s2.53-.75,3.55-5.19c.81-3.52-1.66-5.69-3.29-2.24a2.06,2.06,0,0,1-1.78-.5,48.86,48.86,0,0,0-1.69-6.49c-1-2.93-23.18,5-26.46.22C497.15,87.37,496,89.72,496.77,94.58Z"/><path class="cls-23" d="M510.91,102.82a16.3,16.3,0,0,1-2-.21,2.56,2.56,0,0,1-1.09-.44.78.78,0,0,1-.28-.39,3,3,0,0,1,.05-.61,7.89,7.89,0,0,1,1-2.49c.4-.7.77-1.28,1-1.7a7.05,7.05,0,0,0-1.44,1.43,6.05,6.05,0,0,0-1.24,2.65,2.85,2.85,0,0,0,0,.89,1.52,1.52,0,0,0,.57.75,2.76,2.76,0,0,0,1.41.41A5.23,5.23,0,0,0,510.91,102.82Z"/><path class="cls-6" d="M515.09,97.65a2.13,2.13,0,1,0,2-2.27A2.14,2.14,0,0,0,515.09,97.65Z"/><path class="cls-13" d="M516.76,98.81a1.2,1.2,0,1,0-1.27-1.12A1.2,1.2,0,0,0,516.76,98.81Z"/><path class="cls-6" d="M500.47,98.57a2.14,2.14,0,1,0,2-2.26A2.14,2.14,0,0,0,500.47,98.57Z"/><path class="cls-13" d="M502.15,99.86a1.2,1.2,0,1,0-1.27-1.12A1.2,1.2,0,0,0,502.15,99.86Z"/><path class="cls-16" d="M519.48,94.62a4.44,4.44,0,0,0-4.12,0"/><path class="cls-16" d="M500.1,95.85a4.44,4.44,0,0,1,4.09-.47"/><path class="cls-6" d="M512.49,104.58l-4.89.31a2.51,2.51,0,0,0,4.89-.31Z"/><path class="cls-4" d="M563,144H465.52a9,9,0,0,1-9-9V66.86a9,9,0,0,1,9-9H563a9,9,0,0,1,9,9V135A9,9,0,0,1,563,144Zm-97.43-81a4,4,0,0,0-3.94,3.94V135a3.94,3.94,0,0,0,3.94,3.93H563a3.93,3.93,0,0,0,3.93-3.93V66.86A3.94,3.94,0,0,0,563,62.92Z"/><path class="cls-4" d="M563.15,69a3.07,3.07,0,1,1-3.07-3.07A3.07,3.07,0,0,1,563.15,69Z"/><rect class="cls-4" x="539.07" y="67.63" width="16.21" height="2.68" rx="1.34"/><rect class="cls-4" x="466.6" y="66.95" width="5.96" height="0.84"/><rect class="cls-4" x="466.6" y="68.83" width="5.96" height="0.84"/><rect class="cls-4" x="466.6" y="70.72" width="5.96" height="0.84"/><rect class="cls-26" x="469.26" y="127.33" width="37.97" height="5.72" rx="2.85"/><path class="cls-4" d="M101.15,69.93a27.08,27.08,0,0,0-43,32l-1.66,4.73-4.32,12.25,12.25-4.32,4.72-1.66a27.09,27.09,0,0,0,32-43Z"/><path class="cls-1" d="M71.72,89.88a3.7,3.7,0,1,1-3.7-3.7A3.7,3.7,0,0,1,71.72,89.88Z"/><path class="cls-1" d="M86.07,89.88a3.7,3.7,0,1,1-3.69-3.7A3.69,3.69,0,0,1,86.07,89.88Z"/><path class="cls-1" d="M100.43,89.88a3.7,3.7,0,1,1-3.69-3.7A3.69,3.69,0,0,1,100.43,89.88Z"/><path class="cls-4" d="M412.63,69.67a15.95,15.95,0,0,0-22.55,0l-5.6-5.61a23.88,23.88,0,0,1,33.76,0Z"/><path class="cls-4" d="M421.93,60.37a29.08,29.08,0,0,0-41.15,0l-5.61-5.61a37,37,0,0,1,52.37,0Z"/><path class="cls-4" d="M431.23,51.06a42.26,42.26,0,0,0-59.75,0l-5.61-5.6a50.18,50.18,0,0,1,71,0Z"/><path class="cls-4" d="M346.2,313l-12.69,2.92v-5.06a6,6,0,0,0-6-6H285.29a6,6,0,0,0-6,6v29.84a6,6,0,0,0,6,6h42.25a6,6,0,0,0,6-6v-5.06l12.69,2.91a2.81,2.81,0,0,0,3.44-2.73V315.76A2.81,2.81,0,0,0,346.2,313Z"/><rect class="cls-1" x="292.83" y="318.59" width="27.16" height="14.41" rx="2.93"/></g></g></svg>