<svg xmlns="http://www.w3.org/2000/svg" xmlns:xlink="http://www.w3.org/1999/xlink" viewBox="0 0 84.82 67.24"><defs><style>.cls-1{fill:url(#Gradiente_sem_nome_2);}.cls-2{fill:#4d4d4d;}</style><linearGradient id="Gradiente_sem_nome_2" x1="34.29" y1="45.74" x2="84.82" y2="45.74" gradientUnits="userSpaceOnUse"><stop offset="0" stop-color="#00efd1"/><stop offset="1" stop-color="#00acea"/></linearGradient></defs><g id="Layer_2" data-name="Layer 2"><g id="Formas"><path class="cls-1" d="M69.59,67.24H51.31a1.75,1.75,0,1,1,0-3.49H69.59A11.76,11.76,0,0,0,81.33,52a11.63,11.63,0,0,0-7.2-10.8l-.93-.39-.14-1a8.77,8.77,0,0,0-8.8-7.7,8.28,8.28,0,0,0-2.49.36l-1.08.34L59.94,32a12.68,12.68,0,0,0-22.15,8.44,1.75,1.75,0,0,1-3.5,0A16.19,16.19,0,0,1,61.81,28.87a12.12,12.12,0,0,1,2.45-.24,12.4,12.4,0,0,1,12.1,9.75,15.22,15.22,0,0,1-6.77,28.86Z"/><path class="cls-2" d="M12.78,10l.31,1L2.7,14.23a4.5,4.5,0,0,0,5.16,2,4.41,4.41,0,0,0,2.9-2.86l1.87,1A6.53,6.53,0,1,1,12.78,10Zm-2.41-.35a4.47,4.47,0,0,0-5.16-2,4.52,4.52,0,0,0-3.13,4.57Z"/><path class="cls-2" d="M24.3,14.84c0,2-2.28,3.64-5.07,3.64a5.44,5.44,0,0,1-4.52-2.06,3.25,3.25,0,0,1-.54-1.58h2.09a1.39,1.39,0,0,0,.62.88,4.18,4.18,0,0,0,2.35.7,4.1,4.1,0,0,0,2.36-.7c.19-.13.64-.48.64-.88s-.45-.75-.64-.91a4.2,4.2,0,0,0-1-.48s-3.24-1-3.91-1.29A3.61,3.61,0,0,1,14.2,9.05c0-2,2.25-3.64,5-3.64a5.52,5.52,0,0,1,4.56,2.06,3.2,3.2,0,0,1,.53,1.58H22.21V9c0-.38-.43-.73-.62-.86a4.1,4.1,0,0,0-2.36-.7,4.18,4.18,0,0,0-2.35.7c-.19.13-.62.48-.62.88a1.25,1.25,0,0,0,.62.89,25.49,25.49,0,0,0,4.26,1.53C23,12,24.3,13.31,24.3,14.84Z"/><path class="cls-2" d="M27.48,12a4.46,4.46,0,0,0,8.09,2.6L37.05,16a6.54,6.54,0,1,1,0-8.14L35.57,9.35A4.45,4.45,0,0,0,27.48,12Z"/><path class="cls-2" d="M51.11,12a6.54,6.54,0,1,1-6.54-6.54A6.53,6.53,0,0,1,51.11,12Zm-2.06,0a4.46,4.46,0,1,0-4.48,4.47A4.49,4.49,0,0,0,49.05,12Z"/><path class="cls-2" d="M52.74,0H54.8V18.48H52.74Z"/><path class="cls-2" d="M67.45,5.41h2.06V18.48H67.45V16.72A6.53,6.53,0,1,1,63,5.41a6.43,6.43,0,0,1,4.45,1.77Zm0,6.54A4.46,4.46,0,1,0,63,16.42,4.46,4.46,0,0,0,67.45,12Z"/><path class="cls-2" d="M11,20.59h2.07V38.86H11V37.1a6.54,6.54,0,1,1,0-9.54Zm0,11.74A4.46,4.46,0,1,0,6.51,36.8,4.48,4.48,0,0,0,11,32.33Z"/><path class="cls-2" d="M25.13,25.79h2.06V38.86H25.13V37.1a6.46,6.46,0,0,1-4.45,1.76,6.54,6.54,0,1,1,4.45-11.3Zm0,6.54a4.46,4.46,0,1,0-4.45,4.47A4.47,4.47,0,0,0,25.13,32.33Z"/><path class="cls-2" d="M11,51.61v7.63H8.92V51.61a3.43,3.43,0,0,0-6.86,0v7.63H0V46.17H2.06v1.21A5.48,5.48,0,0,1,11,51.61Z"/><path class="cls-2" d="M21,46.17h2.06V59.24H21V58a5.52,5.52,0,0,1-9-4.23V46.17h2.09v7.64a3.42,3.42,0,0,0,6.83,0h0Z"/><path class="cls-2" d="M34.69,46.17h2.22L31.66,59.24H29.44L24.19,46.17h2.22l4.15,10.29Z"/><path class="cls-2" d="M70.29,51.61h0v7.63H68.23V51.61a3.43,3.43,0,0,0-6.86,0v7.63H59.31V51.61a3.43,3.43,0,0,0-6.86,0v7.63H50.38V46.17h2.07v1.21a5.47,5.47,0,0,1,7.9,1.1,5.47,5.47,0,0,1,9.94,3.13Z"/><path class="cls-2" d="M72.27,57.85a1.59,1.59,0,0,1,1.61-1.69,1.69,1.69,0,1,1-1.61,1.69Z"/><path class="cls-2" d="M49,50.82l.31,1L38.94,55a4.5,4.5,0,0,0,5.16,2A4.41,4.41,0,0,0,47,54.17l1.87,1A6.53,6.53,0,1,1,49,50.82Zm-2.41-.35a4.45,4.45,0,0,0-5.16-2,4.51,4.51,0,0,0-3.13,4.56Z"/></g></g></svg>